<svg xmlns="http://www.w3.org/2000/svg" width="40" height="40" viewBox="0 0 40 40">
    <path id="prefix__iconfinder_Circled_Facebook_svg_5279111" fill="#fcfff5" fill-rule="evenodd" d="M19.924 40zm.141 0zm-.2 0zm.267 0zm-.332 0zm.39 0zm.065 0zm-.53 0zm.594 0zm-.657 0zm.721 0zm-.78 0zm-.073 0zm.918 0zm-.982 0zm1.046 0zm.064 0zm-1.169 0zm-.056 0zm1.29 0zm.064 0zm-1.435 0zm-.059 0zm1.558 0zm-1.615 0zm1.679 0zm-1.76 0zm1.824 0zm-1.882 0zm1.945 0zm-2 0h.031-.031zm2.066 0h-.022.031zm.064 0h.03zm-2.182 0h-.03.03zm2.245 0h-.013.032zm-2.332 0h.032-.032zm-.056 0h.032-.032zm2.452 0H21.2h.032-.012zm-2.506 0h.029-.054.025zm2.569 0h-.027H21.307h-.027zm.064 0h-.01.03-.021zm-2.715 0h.03-.03zm-.056 0h.03-.03zm2.835 0h-.016.03zm-2.891 0h.027-.024zm2.955 0h-.021.027-.006zm-3.03-.006h.024-.024zm3.094 0h-.006.024zm.063 0h-.009.024zm-3.215 0h.024-.024zm-.057 0h.021-.021zm3.335 0h-.012.021zm-3.4-.006zm3.461 0zm.063-.006zm-3.591 0zm-.059-.005zm3.713 0zm-4.979-.158a20 20 0 1 1 6.25 0V25.781h4.66L28.672 20h-5.547v-3.752c0-1.582.775-3.123 3.259-3.123h2.522V8.2a30.755 30.755 0 0 0-4.477-.391c-4.568 0-7.554 2.769-7.554 7.781V20H11.8v5.781h5.078z"/>
</svg>
